<svg xmlns="http://www.w3.org/2000/svg" width="75" height="72" viewBox="0 0 75 72">
    <g id="Group_3388" data-name="Group 3388" transform="translate(-688 -912)">
        <g id="Group_76" data-name="Group 76" transform="translate(-38.686 -107.603)">
            <path id="Path_80" data-name="Path 80" d="M123.551,315.558l.049-.55a5.448,5.448,0,0,1,2.135-3.916,10.763,10.763,0,0,1,2.594-1.446c.832-.349,1.671-.679,2.5-1.038a3.844,3.844,0,0,0,1.279-.85.927.927,0,0,0,.285-.61c.027-.6.047-1.21.053-1.816a.539.539,0,0,0-.126-.3,6.73,6.73,0,0,1-1.2-2.5.663.663,0,0,0-.234-.369,2.716,2.716,0,0,1-.9-1.609,2.35,2.35,0,0,1,.053-1.438,2.2,2.2,0,0,1,.159-.313.583.583,0,0,0,.072-.442,13.938,13.938,0,0,1-.367-3.048,7.4,7.4,0,0,1,.506-2.781,4.765,4.765,0,0,1,3.1-2.834,8.079,8.079,0,0,1,3.212-.35,4.023,4.023,0,0,1,2.022.667c.143.1.269.228.409.334a.771.771,0,0,0,.265.152,3.553,3.553,0,0,1,2.749,2.747,7.311,7.311,0,0,1,.209,2.285,13.451,13.451,0,0,1-.473,2.894.363.363,0,0,0,.028.311,2.26,2.26,0,0,1,.261,1.761,3.042,3.042,0,0,1-.592,1.351c-.1.121-.23.217-.334.335a.814.814,0,0,0-.2.295,7.118,7.118,0,0,1-1.222,2.591.471.471,0,0,0-.093.275q.018.962.06,1.924a.768.768,0,0,0,.267.489,4.262,4.262,0,0,0,1.447.934c1,.419,2,.822,2.995,1.255a7.634,7.634,0,0,1,2.646,1.828,5.217,5.217,0,0,1,1.355,2.982c.037.319.066.638.1.957.016.155-.021.2-.191.2H144.89l-18.278,0c-.954,0-1.909,0-2.863,0a.614.614,0,0,1-.2-.077Zm12.557-.984h10.869c.164,0,.173-.013.137-.171a4.058,4.058,0,0,0-1.789-2.506,12.626,12.626,0,0,0-2.284-1.144c-.833-.346-1.669-.686-2.489-1.061a4.251,4.251,0,0,1-1.594-1.213,2.054,2.054,0,0,1-.5-1.135c-.018-.257-.029-.515-.032-.772-.007-.624,0-1.248-.011-1.872a.315.315,0,0,1,.209-.328.924.924,0,0,0,.417-.372,5.5,5.5,0,0,0,.826-2.411c.035-.311-.012-.382.37-.395.031,0,.062-.013.094-.015a.454.454,0,0,0,.454-.39c.051-.238.09-.479.136-.718a.678.678,0,0,0-.422-.879c-.163-.064-.176-.14-.112-.333a13.153,13.153,0,0,0,.653-2.774,6.99,6.99,0,0,0-.038-2.12,2.957,2.957,0,0,0-.7-1.5,2.487,2.487,0,0,0-1.547-.734.492.492,0,0,1-.426-.284A1.055,1.055,0,0,0,137.9,291a2.357,2.357,0,0,0-1.055-.312,7.757,7.757,0,0,0-2.885.255,3.548,3.548,0,0,0-2.265,1.784,4.988,4.988,0,0,0-.514,2.347,14.171,14.171,0,0,0,.545,3.62c.12.447.132.384-.243.615a.451.451,0,0,0-.247.46c.044.357.094.715.169,1.067.05.233.2.322.444.343.459.04.406-.054.462.452a5.359,5.359,0,0,0,.844,2.361.937.937,0,0,0,.36.334.447.447,0,0,1,.281.482c-.02.755-.028,1.51-.043,2.265a2.258,2.258,0,0,1-.447,1.325,3.989,3.989,0,0,1-1.556,1.236c-.828.388-1.675.738-2.521,1.088a12.846,12.846,0,0,0-2.439,1.223,4,4,0,0,0-1.695,2.307c-.085.321-.085.322.25.322Z" transform="translate(628.449 752.833)"/>
        </g>
        <line id="Line_13" data-name="Line 13" y1="13.091" transform="translate(726.298 912)" fill="none" stroke="#590000" stroke-width="2"/>
        <line id="Line_14" data-name="Line 14" y1="9.6" x2="10.008" transform="translate(742.343 923.346)" fill="none" stroke="#590000" stroke-width="2"/>
        <line id="Line_15" data-name="Line 15" x2="14" transform="translate(749 948)" fill="none" stroke="#590000" stroke-width="2"/>
        <line id="Line_16" data-name="Line 16" x2="10" y2="10" transform="translate(743 963)" fill="none" stroke="#590000" stroke-width="2"/>
        <line id="Line_17" data-name="Line 17" y2="12" transform="translate(726 972)" fill="none" stroke="#590000" stroke-width="2"/>
        <line id="Line_18" data-name="Line 18" x1="9" y2="9" transform="translate(699 963)" fill="none" stroke="#590000" stroke-width="2"/>
        <line id="Line_19" data-name="Line 19" x1="14" transform="translate(688 948)" fill="none" stroke="#590000" stroke-width="2"/>
        <line id="Line_20" data-name="Line 20" x1="11" y1="11" transform="translate(698 922)" fill="none" stroke="#590000" stroke-width="2"/>
    </g>
</svg>