<svg xmlns="http://www.w3.org/2000/svg" width="95.184" height="69.93" viewBox="0 0 95.184 69.93">
    <g id="Group_3387" data-name="Group 3387" transform="translate(-181.381 -909)">
        <g id="Layer_x0020_1" transform="translate(181.381 929.04)">
            <path id="Path_61" data-name="Path 61" d="M24.437,12.933c-.042,0-12.437.9-18.447,5.78L3.736,24.1c0,.021-.021.042-.021.083-.334.689-5.238,10.914-.522,14.545,7.638,2.254,20.033,2.379,30.739,2.483,3.9.042,7.6.083,10.726.23h0c.417,0,6.949.1,7.283-.856.042-.146.125-.772.271-1.669.48-3.485,1.565-11.018,4.132-15.213,1.69-2.8,3.986-4.174,7.137-2.275l.021.021h0s3.548,2.233,3.235,14.629l.042,1.21L80.552,33.8c.292-2.337,2.045-14.649,6.177-13.606.188.042.835.209,1.294,1.377.25-2.212.167-5.071-1.44-6.636-.647-.626-1.4-1.5-2.275-2.525C80.781,8.258,75.126,1.643,67.843,1.288,62.4,1.017,54.466.829,47.58,1.184c-4.862.25-9.182.793-11.707,1.753-.042.021-.083.021-.125.042-.209.042-2.65.689-10.935,9.787a.561.561,0,0,1-.376.167ZM5.176,17.941c5.78-4.779,17.237-5.927,18.969-6.073C32.158,3.1,35.038,2.019,35.5,1.893,38.148.892,42.572.349,47.538.1c6.907-.376,14.879-.188,20.346.083,7.784.4,13.606,7.22,17.258,11.5.876,1.023,1.607,1.878,2.191,2.462,3.276,3.193,1.294,10.392,1.169,10.872A.563.563,0,0,1,87.4,24.89c0-3.61-.772-3.589-.772-3.589h0c-.042,0-.083-.021-.125-.021-3.3-.96-4.841,12.5-4.9,13a.559.559,0,0,1-.4.5L66.382,38.538h-.1a.526.526,0,0,1-.563-.522l-.083-1.92h0v-.021c.292-11.811-2.734-13.71-2.755-13.71h0c-2.421-1.482-4.236-.334-5.593,1.9-2.442,4.007-3.506,11.394-3.986,14.8-.146.96-.23,1.628-.313,1.878-.584,1.711-7.93,1.607-8.347,1.607l-.021-.021c-3.151-.125-6.8-.167-10.705-.209-10.81-.1-23.351-.25-31.135-2.567h0a.419.419,0,0,1-.167-.083c-5.572-4.132-.23-15.3.125-15.985h0l2.3-5.53h0A1.267,1.267,0,0,1,5.176,17.941Z" transform="translate(-0.086 0.112)" fill="#590000"/>
            <path id="Path_62" data-name="Path 62" d="M1179.563,45.066A.561.561,0,0,1,1179,44.5a.552.552,0,0,1,.543-.543l34.975-.146c.417-1.941,2.17-9.725,4.195-11.185a.563.563,0,0,1,.772.146.517.517,0,0,1-.125.751c-1.941,1.4-3.777,10.58-3.84,10.935a.542.542,0,0,1-.542.438Z" transform="translate(-1154.398 -31.854)" fill="#590000"/>
            <path id="Path_63" data-name="Path 63" d="M3082.28,137.4c.1-.563,2.087-10.2,5.113-9.85,1.419.167,3.881,1.628,6.281,3.485a27,27,0,0,1,5.781,5.822.544.544,0,0,1-.167.751.479.479,0,0,1-.292.083c-.042,0-16.257.543-16.569.23A.545.545,0,0,1,3082.28,137.4Zm4.987-8.744c-1.794-.209-3.4,6.615-3.819,8.514,1.69.021,11.331-.4,14.5-.522a29.43,29.43,0,0,0-4.967-4.737C3090.752,130.16,3088.478,128.783,3087.267,128.658Z" transform="translate(-3017.945 -124.878)" fill="#590000"/>
            <path id="Path_64" data-name="Path 64" d="M3549.131,312.465a.553.553,0,0,1,1.106.042l-.188,4.633a.575.575,0,0,1-.584.543.557.557,0,0,1-.521-.584Z" transform="translate(-3474.884 -305.43)" fill="#590000"/>
            <path id="Path_65" data-name="Path 65" d="M304.509,896.49c.9-.042,21.64-1.19,27.88.313a.592.592,0,0,1,.417.438h0c0,.021,1.649,8.389-8.347,8.619-.876.042-1.732.063-2.567.083-8.514.23-16.048.417-17.529-1.774a9.716,9.716,0,0,1-1.189-5.4,6.052,6.052,0,0,1,.209-1.21,1.613,1.613,0,0,1,.584-.9h0A.877.877,0,0,1,304.509,896.49Zm27.254,1.315c-6.49-1.356-26.4-.271-27.191-.209h-.021a2.544,2.544,0,0,0-.1.271,3.977,3.977,0,0,0-.167.981,8.457,8.457,0,0,0,.981,4.716c1.169,1.69,8.41,1.5,16.59,1.273l2.567-.063C331.972,904.587,331.909,899.244,331.763,897.8Z" transform="translate(-296.832 -877.331)" fill="#590000"/>
            <g id="Group_74" data-name="Group 74" transform="translate(36.643 17.406)">
                <path id="Path_66" data-name="Path 66" d="M1756.021,842.222c.063-.334,1.127-5.008,5.3-6.74a26,26,0,0,1,8.848-1.482,14.2,14.2,0,0,1,2.066.125c.689.125,1.148.334,1.294.689,0,.021.021.042.021.063a.627.627,0,0,1,.042.209v.1h0c.042,1.356.25,7.721-17.049,7.721a.552.552,0,0,1-.542-.543A.307.307,0,0,1,1756.021,842.222Zm5.718-5.718a8.311,8.311,0,0,0-4.466,5.3c15.4-.167,15.255-5.426,15.213-6.573h0v-.021a1.382,1.382,0,0,1-.438,0,14.563,14.563,0,0,0-1.878-.1A24.9,24.9,0,0,0,1761.739,836.5Zm11.853-1.315a.544.544,0,0,1-.542.563Z" transform="translate(-1756 -834)" fill="#590000"/>
            </g>
            <path id="Path_67" data-name="Path 67" d="M143.489,920.506a.554.554,0,0,1,1.106-.042l.188,5.8a.536.536,0,0,1-.417.543,2.291,2.291,0,0,1-2.942-1.461.549.549,0,0,1,.334-.709.578.578,0,0,1,.71.355,1.14,1.14,0,0,0,1.21.835Z" transform="translate(-138.44 -900.742)" fill="#590000"/>
            <path id="Path_68" data-name="Path 68" d="M48.465,1769.106a.552.552,0,0,1-.522-.563.544.544,0,0,1,.563-.542l50.564,1.544a.554.554,0,0,1-.042,1.106Z" transform="translate(-46.943 -1731.103)" fill="#590000"/>
            <path id="Path_69" data-name="Path 69" d="M156.95,1482.669a.52.52,0,0,1-.689.334.546.546,0,0,1-.355-.689c.021-.021,2-5.989,4.883-6.114,2.5-.125,23.164.48,23.226.48.021,0,.063.021.083.021h0c.021,0,2.88.564,3.923,1.607.939.918,4.716,4.9,4.737,4.925a.555.555,0,0,1-.021.772.58.58,0,0,1-.793-.021c0-.021-3.777-3.986-4.7-4.9a8.662,8.662,0,0,0-3.318-1.294c-1.106-.042-20.7-.605-23.1-.5C158.724,1477.389,156.971,1482.648,156.95,1482.669Z" transform="translate(-152.633 -1445.375)" fill="#590000"/>
            <path id="Path_70" data-name="Path 70" d="M2535.648,578.774a.555.555,0,0,1-.522-.981c.021,0,6.24-3.276,6.866-5.426a.558.558,0,0,1,.689-.376.536.536,0,0,1,.376.668C2542.284,575.268,2535.669,578.774,2535.648,578.774Z" transform="translate(-2481.935 -560.032)" fill="#590000"/>
            <path id="Path_71" data-name="Path 71" d="M3136.356,1183.986a.548.548,0,0,1-.146-1.085l16.339-2.149a.529.529,0,0,1,.605.48.539.539,0,0,1-.459.605Z" transform="translate(-3070.31 -1156.104)" fill="#590000"/>
            <path id="Path_72" data-name="Path 72" d="M3576.523,608.3a.551.551,0,1,1,.876-.668,7.276,7.276,0,0,1,1.252,3.944c0,1.941-.458,17.821-.458,17.863a.553.553,0,0,1-1.106-.021c0-.042.459-15.672.459-17.842A6,6,0,0,0,3576.523,608.3Z" transform="translate(-3501.775 -594.729)" fill="#590000"/>
            <path id="Path_73" data-name="Path 73" d="M174.386,1886.754a.578.578,0,0,1,.4-.689.539.539,0,0,1,.668.4,8.5,8.5,0,0,0,6.177,5.53,10.811,10.811,0,0,0,6.01-.355,8.36,8.36,0,0,0,4.3-3.276.563.563,0,0,1,.772-.146.538.538,0,0,1,.146.751,9.372,9.372,0,0,1-4.841,3.694,11.973,11.973,0,0,1-6.657.4A9.624,9.624,0,0,1,174.386,1886.754Z" transform="translate(-170.736 -1846.685)" fill="#590000"/>
            <path id="Path_74" data-name="Path 74" d="M2043.938,1811.545a.588.588,0,0,1,.5-.605.563.563,0,0,1,.605.522,7.07,7.07,0,0,0,5.968,6.26c.522.083,1.043.146,1.586.188a16.491,16.491,0,0,0,8.66-1.294c2.629-1.336,4.779-3.777,5.468-7.993.063-.4.1-.793.146-1.189a.54.54,0,0,1,.585-.5.534.534,0,0,1,.5.605c-.042.438-.083.856-.146,1.252-.751,4.633-3.13,7.324-6.073,8.806a17.521,17.521,0,0,1-9.244,1.419c-.563-.062-1.127-.125-1.649-.209A8.207,8.207,0,0,1,2043.938,1811.545Z" transform="translate(-2001.286 -1769.222)" fill="#590000"/>
            <path id="Path_75" data-name="Path 75" d="M2481.76,1942.585a.56.56,0,0,1-.292.73.706.706,0,0,1-.292.042l.563.229a11.54,11.54,0,0,0,.271,1.941c.459,2.024,1.586,4.466,4.153,4.383a.543.543,0,1,1,.042,1.085c-3.318.125-4.716-2.8-5.28-5.217a12.036,12.036,0,0,1-.292-2.149,2.107,2.107,0,0,1,.062-.751.417.417,0,0,1,.042-.313.538.538,0,0,1,.626-.313h0c.042,0,.063,0,.083.021h0A.576.576,0,0,1,2481.76,1942.585Z" transform="translate(-2428.861 -1901.702)" fill="#590000"/>
            <path id="Path_76" data-name="Path 76" d="M2735.836,1087.194a.551.551,0,0,1-.731-.25.533.533,0,0,1,.25-.73,6.226,6.226,0,0,1,7.972,2.4.554.554,0,0,1-.125.751.541.541,0,0,1-.772-.125A5.164,5.164,0,0,0,2735.836,1087.194Z" transform="translate(-2677.97 -1062.964)" fill="#590000"/>
            <path id="Path_77" data-name="Path 77" d="M3708.938,1231.081a.544.544,0,0,1,1.085-.084c0,.021.208,4.007,2.378,4.007.1,0,.438.021.772.021,2.254.042,4.7.083,5.509-3.631a33.363,33.363,0,0,0,.146-10.017.559.559,0,0,1,.459-.626.548.548,0,0,1,.626.48,33.877,33.877,0,0,1-.167,10.392c-1,4.612-3.882,4.549-6.595,4.507a7.183,7.183,0,0,0-.751-.021C3709.188,1236.11,3708.938,1231.081,3708.938,1231.081Z" transform="translate(-3631.54 -1195.269)" fill="#590000"/>
            <path id="Path_78" data-name="Path 78" d="M3973.183,1157.13a.536.536,0,0,1,.021.772.56.56,0,0,1-.793.021s-1.586-1.607-2.3,1.419a29.181,29.181,0,0,0-.417,8.139,9.468,9.468,0,0,0,.543,2.588c.209.48.438.793.668.793a.487.487,0,0,0,.229-.042.524.524,0,0,1,.71.313.545.545,0,0,1-.292.71,2.005,2.005,0,0,1-.688.125c-.731-.042-1.274-.584-1.649-1.481a11.888,11.888,0,0,1-.626-2.88,30.071,30.071,0,0,1,.459-8.514C3970.2,1154.146,3973.183,1157.13,3973.183,1157.13Z" transform="translate(-3885.664 -1132.107)" fill="#590000"/>
        </g>
        <g id="icon_action_check_circle_24px_" data-name="icon/action/check_circle_24px " transform="translate(244.565 909)">
            <rect id="Boundary" width="32" height="32" rx="16" fill="#58b368"/>
            <path id="_Color" data-name=" ↳Color" d="M4.884,9.444,1.221,5.7,0,6.949l4.884,4.989L15.35,1.247,14.129,0Z" transform="translate(9.38 9.381)" fill="#fff"/>
        </g>
    </g>
</svg>