<svg xmlns="http://www.w3.org/2000/svg" width="66.667" height="70" viewBox="0 0 66.667 70">
    <g id="Group_3264" data-name="Group 3264" transform="translate(-132 -130.159)">
        <path id="Path_8290" data-name="Path 8290" d="M166.579,185.576H135.723A3.681,3.681,0,0,1,132,181.948v-2.321A3.681,3.681,0,0,1,135.723,176h30.856a3.681,3.681,0,0,1,3.723,3.628v2.321a3.57,3.57,0,0,1-1.025,2.506A3.794,3.794,0,0,1,166.579,185.576Zm-30.856-6.384c-.474,0-.777.286-.777.436v2.321c0,.15.3.436.777.436h30.856a.956.956,0,0,0,.677-.252.325.325,0,0,0,.1-.184v-2.321c0-.15-.3-.436-.777-.436Z" transform="translate(0 14.583)" fill="#590000"/>
        <rect id="Rectangle_1912" data-name="Rectangle 1912" width="27.131" height="3.192" rx="0.58" transform="translate(138.384 185.795)" fill="#590000"/>
        <path id="Path_8291" data-name="Path 8291" d="M191.8,181.318l-23.684-12.11a3.574,3.574,0,0,0-4.727,1.505l-5.15-2.675,2.538-4.539,1.076.568c1.211.643,2.729-.088,3.6-1.736l.87-1.642a3.67,3.67,0,0,0,.41-2.723,2.061,2.061,0,0,0-1-1.235l-9.408-4.971a2.268,2.268,0,0,0-2.526.388,4.414,4.414,0,0,0-1.079,1.35l-.868,1.641a3.676,3.676,0,0,0-.413,2.721,2.064,2.064,0,0,0,1,1.237l.477.252-6.663,11.919-.93-.492a2.266,2.266,0,0,0-2.53.389,4.41,4.41,0,0,0-1.074,1.349l-.87,1.641a3.677,3.677,0,0,0-.413,2.721,2.08,2.08,0,0,0,1,1.237l9.408,4.971a1.966,1.966,0,0,0,.927.231,3.268,3.268,0,0,0,2.678-1.969l.87-1.642a3.671,3.671,0,0,0,.41-2.719,2.063,2.063,0,0,0-1-1.237l-.622-.329,2.568-4.593,5.308,2.758a3.566,3.566,0,0,0,1.767,4.151l23.686,12.11a3.459,3.459,0,0,0,1.577.38,3.564,3.564,0,0,0,1.374-.278,3.683,3.683,0,0,0,1.848-1.722l1.058-2.065A3.59,3.59,0,0,0,191.8,181.318Zm-42.068-4.6,2.785,1.471-.013.024-.868,1.641-.016.029-7.959-4.205.013-.024.87-1.642.014-.027,2.965,1.566,9.778-17.492-2.64-1.395.013-.026.87-1.641.014-.029,7.959,4.205-.013.026-.87,1.641-.016.029-3.109-1.644Zm40.724,7.991L189.4,186.77a.477.477,0,0,1-.241.231.317.317,0,0,1-.265,0l-23.686-12.112h0a.4.4,0,0,1-.109-.544l1.057-2.065a.409.409,0,0,1,.506-.233l23.682,12.112A.4.4,0,0,1,190.456,184.705Z" transform="translate(4.964)" fill="#590000"/>
        <circle id="Ellipse_47" data-name="Ellipse 47" cx="16" cy="16" r="16" transform="translate(163 130.159)" fill="#f1931f"/>
        <g id="History-Icon-SVG-fdass" transform="translate(169.37 136.125)">
            <path id="Path_49" data-name="Path 49" d="M241.117,89.5a.417.417,0,0,0-.417.417v6.234l4.517,3.475a.41.41,0,0,0,.255.086.4.4,0,0,0,.33-.165.418.418,0,0,0-.075-.586l-4.19-3.223V89.917A.418.418,0,0,0,241.117,89.5Z" transform="translate(-231.238 -85.982)" fill="#fff"/>
            <path id="Path_50" data-name="Path 50" d="M9.921,0A9.931,9.931,0,0,0,0,9.921a9.81,9.81,0,0,0,2.024,6L.366,17.213a.233.233,0,0,0,.114.417l4.037.507a.237.237,0,0,0,.263-.2L5.287,13.9a.234.234,0,0,0-.377-.212L2.948,15.2A8.646,8.646,0,0,1,1.171,9.921a8.75,8.75,0,1,1,8.75,8.75.586.586,0,1,0,0,1.171A9.921,9.921,0,0,0,9.921,0Z" fill="#fff"/>
        </g>
    </g>
</svg>